<?xml version="1.0" standalone="no"?>
<!DOCTYPE svg PUBLIC "-//W3C//DTD SVG 20010904//EN"
 "http://www.w3.org/TR/2001/REC-SVG-20010904/DTD/svg10.dtd">
<svg version="1.0" xmlns="http://www.w3.org/2000/svg"
 width="612.000000pt" height="600.000000pt" viewBox="0 0 612.000000 600.000000"
 preserveAspectRatio="xMidYMid meet">

<g transform="translate(0.000000,600.000000) scale(0.100000,-0.100000)"
fill="#000000" stroke="none">
<path d="M1563 4625 c-124 -38 -225 -139 -263 -261 -17 -58 -20 -93 -20 -285
l0 -219 1721 0 1721 0 -4 248 c-4 275 -7 286 -77 372 -52 65 -78 86 -149 122
-53 26 -79 32 -147 36 l-84 4 -3 -216 c-3 -207 -4 -216 -25 -238 -33 -33 -89
-30 -119 6 -24 27 -24 31 -24 237 l0 209 -304 0 -305 0 -3 -215 c-3 -206 -4
-215 -25 -237 -33 -33 -89 -30 -119 6 -24 27 -24 31 -24 237 l0 209 -310 0
-310 0 0 -209 c0 -206 0 -210 -24 -237 -30 -36 -86 -39 -119 -6 -21 22 -22 31
-25 237 l-3 215 -305 0 -304 0 0 -209 c0 -206 0 -210 -24 -237 -30 -36 -86
-39 -119 -6 -21 22 -22 31 -25 237 l-3 215 -67 -1 c-37 0 -86 -6 -109 -14z"/>
<path d="M3642 3462 c-9 -7 -12 -44 -10 -153 l3 -144 145 0 145 0 3 144 c2
109 -1 146 -10 153 -7 4 -69 8 -138 8 -69 0 -131 -4 -138 -8z"/>
<path d="M4032 3462 c-9 -7 -12 -44 -10 -153 l3 -144 145 0 145 0 3 144 c2
109 -1 146 -10 153 -7 4 -69 8 -138 8 -69 0 -131 -4 -138 -8z"/>
<path d="M3642 3072 c-9 -7 -12 -44 -10 -153 l3 -144 145 0 145 0 3 144 c2
109 -1 146 -10 153 -7 4 -69 8 -138 8 -69 0 -131 -4 -138 -8z"/>
<path d="M4032 3072 c-9 -7 -12 -44 -10 -153 l3 -144 145 0 145 0 3 144 c2
109 -1 146 -10 153 -7 4 -69 8 -138 8 -69 0 -131 -4 -138 -8z"/>
<path d="M3642 2682 c-9 -7 -12 -44 -10 -153 l3 -144 145 0 145 0 3 144 c2
109 -1 146 -10 153 -7 4 -69 8 -138 8 -69 0 -131 -4 -138 -8z"/>
<path d="M4031 2676 c-8 -9 -11 -59 -9 -152 l3 -139 145 0 145 0 3 144 c2 109
-1 146 -10 153 -7 4 -70 8 -139 8 -96 0 -129 -3 -138 -14z"/>
<path d="M3647 2287 c-15 -11 -17 -29 -15 -152 l3 -140 145 0 145 0 3 144 c2
109 -1 146 -10 153 -22 13 -252 10 -271 -5z"/>
<path d="M4037 2287 c-15 -11 -17 -29 -15 -152 l3 -140 145 0 145 0 3 144 c2
109 -1 146 -10 153 -22 13 -252 10 -271 -5z"/>
</g>
</svg>
